<?xml version="1.0" encoding="UTF-8" standalone="no"?>
<svg
   viewBox="0 0 269 249"
   clip-rule="evenodd"
   fill-rule="evenodd"
   stroke-linecap="round"
   stroke-linejoin="round"
   version="1.1"
   id="svg6"
   sodipodi:docname="logo-no-text.svg"
   width="269"
   height="249"
   inkscape:version="1.1 (c4e8f9e, 2021-05-24)"
   xmlns:inkscape="http://www.inkscape.org/namespaces/inkscape"
   xmlns:sodipodi="http://sodipodi.sourceforge.net/DTD/sodipodi-0.dtd"
   xmlns="http://www.w3.org/2000/svg"
   xmlns:svg="http://www.w3.org/2000/svg">
  <defs
     id="defs10" />
  <sodipodi:namedview
     id="namedview8"
     pagecolor="#ffffff"
     bordercolor="#666666"
     borderopacity="1.0"
     inkscape:pageshadow="2"
     inkscape:pageopacity="0.0"
     inkscape:pagecheckerboard="0"
     showgrid="false"
     fit-margin-top="0"
     fit-margin-left="0"
     fit-margin-right="0"
     fit-margin-bottom="0"
     inkscape:zoom="1.7914286"
     inkscape:cx="150.99681"
     inkscape:cy="77.870813"
     inkscape:window-width="1296"
     inkscape:window-height="855"
     inkscape:window-x="64"
     inkscape:window-y="23"
     inkscape:window-maximized="0"
     inkscape:current-layer="svg6" />
  <path
     fill="#000000"
     d="m 248.123,136.14009 c -4.495,0.049 -8.991,0.015 -13.487,0.024 -1.333,0.648 -2.942,1.172 -3.59,2.616 -0.867,1.887 -0.916,3.997 -1.465,5.975 a 109.491,109.491 0 0 1 -4.09,14.006 c -0.204,0.542 -0.495,1.323 -0.74,1.956 -6.4,16.483 -16.898,31.491 -30.638,42.91 -11.088,9.249 -24.271,16.133 -38.402,19.627 -11.815,2.954 -24.23,3.553 -36.29,1.808 -11.669,-1.69 -23.1,-5.654 -33.315,-11.525 -15.153,-8.637 -27.779,-21.32 -36.679,-36.097 a 107.394,107.394 0 0 1 -5.407,-10.132 c -0.346,-0.753 -0.79,-1.709 -1.148,-2.55 a 109.297,109.297 0 0 1 -3.711,-9.782 c -0.177,-0.552 -0.398,-1.232 -0.566,-1.803 -1.388,-4.505 -2.452,-9.101 -3.27,-13.737 -0.893,-1.168 -1.703,-2.636 -3.272,-2.998 -2.125,-0.507 -4.325,-0.178 -6.486,-0.274 h -8.948 l -3.296,1.47 c -0.517,1.708 -1.355,3.51 -0.766,5.311 4.117,24.58 15.379,48.04 32.45,66.516 14.297,15.53 32.703,27.503 53.077,33.813 20.978,6.536 43.875,7.037 65.114,1.346 18.325,-4.86 35.325,-14.241 49.299,-26.821 15.643,-14.032 27.592,-31.927 34.72,-51.496 2.994,-8.177 5.149,-16.644 6.504,-25.23 -0.458,-1.29 -0.647,-2.831 -1.882,-3.678 -1.103,-0.708 -2.37,-1.286 -3.716,-1.255 z M 133.085,0.00708839 c -20.864,0.194 -41.605,5.74800001 -59.365,15.75999961 -19.677,11.017 -35.736,27.212 -46.314,45.945 a 117.532,117.532 0 0 0 -13.68,38.623002 c 0.458,1.203 0.647,2.639 1.88,3.427 1.333,0.85 2.971,1.338 4.6,1.15 h 12.605 c 1.333,-0.605 2.942,-1.094 3.59,-2.442 0.868,-1.761 0.914,-3.731002 1.465,-5.577002 0.202,-0.886 0.408,-1.661 0.646,-2.576 4.276,-16.123 12.85,-31.314 25.005,-43.64 11.663,-11.884 26.72,-21.057 43.415,-25.808 a 101.12,101.12 0 0 1 11.336,-2.537 c 0.448,-0.066 1.261,-0.198 1.722,-0.265 17.135,-2.502 35.029,-0.475 50.96,5.833 12.063,4.723 22.977,11.795 32.081,20.428 0.282,0.27 0.768,0.745 1.129,1.093 a 98.8,98.8 0 0 1 17.233,22.57 99.257,99.257 0 0 1 4.15,8.372 97.989,97.989 0 0 1 5.776,17.584 c 0.324,1.316 0.518,2.676002 0.857,3.975002 0.87,1.08 1.69,2.407 3.23,2.735 2.121,0.471 4.319,0.164 6.476,0.255 h 9.074 c 1.203,-0.603 2.706,-0.992 3.362,-2.205 0.75,-1.367 0.994,-2.980002 0.51,-4.457002 -4.156,-22.82 -15.401,-44.582 -32.381,-61.747 -14.627,-14.836 -33.572,-26.186 -54.505,-31.9699996 -11.279,-3.122 -23.076,-4.65100001 -34.857,-4.52600001 z"
     id="path2" />
  <path
     stroke="#000000"
     stroke-width="25"
     d="m 12.5,120.67109 83.05,-1.073 16.78,18.577 m 144.18,-17.176 -83.05,-1.072 -16.78,18.577"
     fill="none"
     id="path4" />
</svg>
