<svg viewBox="0 0 1200 350" xmlns="http://www.w3.org/2000/svg" clip-rule="evenodd" fill-rule="evenodd" stroke-linecap="round" stroke-linejoin="round">
  <g aria-label="Flightdek" fill="#0c90ef" fill-rule="nonzero">
    <path d="M515.806 85.437q5.6.8 7.6 3.4 2.2 2.6 2.2 6.8 0 13.8-14.8 12.8l-7-.6q-11.8-1-23.6-1.6-11.6-.6-24.4-.6h-9q-2.4 29.6-5 54l34.4-.6q7.4 0 9.8 2.6 2.6 2.6 2.6 7 0 6.8-4 10.8-4 3.8-11.4 3.8h-34.2l-1.2 8.6q-4.2 33-18 47-13.6 14-37.6 14-13.6 0-25-5.8-11.4-6-16.8-14.4-2.2-3.4-2.2-8.2 0-4.8 2.2-8.4 2.4-3.6 5.8-3.6 2.4 0 4.6 1.6 2.4 1.6 6 6.2 9.6 12.6 23.8 12.6 11.4 0 19-9.2 7.8-9.4 10-29.4l1.2-11h-9.6q-4.6 0-8-2.6-3.2-2.6-3.2-7.4 0-6.2 3.2-9.4 3.2-3.4 9.4-3.4 5.6 0 11-.2 2.4-22 5.2-53.4-21.6 2-30.4 7-8.8 5-8.8 14.8 0 6.8 4 13 1.2 1.8 1.2 3.6 0 3.6-4 6.4-4 2.6-9 2.6-5.4 0-9.2-3.2-2.4-2-4.6-8.2-2.2-6.2-2.2-13.8 0-24.8 25.4-36 25.6-11.2 74.6-11.2 34 0 60 3.6z"/>
    <path d="M566.574 206.637q2.6 0 4 2.4 1.6 2.4 1.6 6.6 0 8-3.8 12.4-8.6 10.6-18.8 17.4-10 6.8-22.8 6.8-17.6 0-26.2-16-8.4-16-8.4-41.4 0-24.4 6.2-55.6 6.4-31.2 18.6-53.6 12.4-22.4 29.4-22.4 9.6 0 15 9 5.6 8.8 5.6 25.4 0 23.8-13.2 55.2-13.2 31.4-35.8 62.2 1.4 8.2 4.6 11.8 3.2 3.4 8.4 3.4 8.2 0 14.4-4.6 6.2-4.8 15.8-16.2 2.4-2.8 5.4-2.8zm-24.6-123.6q-4.6 0-10.4 16.6-5.8 16.6-10.2 41.2-4.4 24.6-4.8 47.2 14.2-23.4 22.6-46.8 8.4-23.6 8.4-43 0-15.2-5.6-15.2z" />
    <path d="M582.398 144.837q-8.4 0-12.6-3.8-4.2-4-4.2-11t5.4-11.6q5.6-4.8 13.8-4.8 7.4 0 12 3.6t4.6 10.2q0 8-5.2 12.8-5.2 4.6-13.8 4.6zm-1.6 107.4q-13 0-19-9.2-5.8-9.2-5.8-24.4 0-9 2.2-23 2.4-14.2 6-26.4 1.8-6.4 4.8-8.8 3-2.4 9.6-2.4 10.2 0 10.2 6.8 0 5-3.8 23.2-4.8 22-4.8 29.8 0 6 1.6 9.2 1.6 3.2 5.4 3.2 3.6 0 9-5t14.4-15.8q2.4-2.8 5.4-2.8 2.6 0 4 2.4 1.6 2.4 1.6 6.6 0 8-3.8 12.4-19.8 24.2-37 24.2z" />
    <path d="M708.007 207.037q2.6 0 4 2.6 1.6 2.4 1.6 6.2 0 4.6-1.4 7.2-1.4 2.6-4.4 4.6-17.2 11.6-25.2 17.2l-12.8 8.6q-7.6 41.4-20 65-12.2 23.8-31.2 23.8-10.2 0-16.6-6.4-6.4-6.2-6.4-16.4 0-14.2 11.2-30.6 11.2-16.2 42-40l1.2-7.8q-3.4 5.4-9 8.4-5.4 2.8-10.8 2.8-12.4 0-19.8-9t-7.4-23.6q0-16 7.4-30.2 7.4-14.4 19.6-23 12.4-8.8 26.2-8.8 4.4 0 5.8 1.8 1.6 1.6 2.6 6 3.8-.8 8.8-.8 5 0 7 1.6 2.2 1.4 2.2 5.8 0 2.4-.2 3.8-.8 6.2-5 31.4-.8 4.8-1.8 10.6-.8 5.6-1.8 12 15.4-12 29.6-21.2 2.6-1.6 4.6-1.6zm-70.6 25q4.6 0 8.8-5.6 4.2-5.6 6-16l6.4-34.2q-8.2.2-15.2 6.4-7 6-11.2 16-4.2 10-4.2 21.2 0 6.2 2.4 9.2 2.6 3 7 3zm-16.6 90.8q5 0 11.2-12 6.4-12 12.2-38.2-15.4 13.2-22.2 23.8-6.8 10.6-6.8 18.6 0 3.4 1.2 5.6 1.4 2.2 4.4 2.2z" />
    <path d="M812.5 206.637q2.6 0 4 2.4 1.6 2.4 1.6 6.6 0 8-3.8 12.4-9.2 10.6-19 17.4-9.6 6.8-22 6.8-10.2 0-15.4-5.8-5.2-6-5.2-17.2 0-5.6 2.8-20 2.6-12.6 2.6-17.4 0-3.2-2.2-3.2-2.6 0-7.4 6.8-4.8 6.6-9.6 17.6-4.8 11-7.8 23.2-3.8 16-18.8 16-6 0-8-4.2-1.8-4.4-1.8-15.6 0-6.4.2-10.2l.2-16q0-30.8 6.2-64.2 6.4-33.4 18.6-56 12.4-22.8 29.6-22.8 9.2 0 14.8 8 5.8 7.8 5.8 20.4 0 20.2-11.8 42-11.8 21.6-38.4 50.6-.6 10.4-.6 21.4 6.6-17 14.6-27.6 8.2-10.8 16-15.4 8-4.6 14.6-4.6 13 0 13 13 0 7.8-4.4 28.2-3.8 17.4-3.8 23 0 8 5.8 8 4 0 9.4-4.8 5.6-5 14.8-16 2.4-2.8 5.4-2.8zm-59.4-123.6q-3.6 0-8 10.4-4.4 10.2-8.6 27.8-4 17.4-6.6 38 12.4-14.6 20.4-31.8 8.2-17.2 8.2-31.2 0-6.4-1.4-9.8-1.4-3.4-4-3.4z" />
    <path d="M891.28 206.637q2.6 0 4 2.4 1.6 2.4 1.6 6.6 0 8-3.8 12.4-8.6 10.6-18.8 17.4-10.2 6.8-23.4 6.8-40.8 0-40.8-57.4 0-8.8.6-17.8h-7.8q-6 0-8.2-2.2-2-2.2-2-7 0-11.2 9-11.2h11.4q3.4-22 10.4-40.2 7-18.2 16.8-29 10-10.8 21.4-10.8 8.4 0 13.2 7.4 4.8 7.4 4.8 18.6 0 31-26 54h22.4q3.2 0 4.6 1.4 1.4 1.4 1.4 5.2 0 13.8-22.6 13.8h-24.4q-.4 10-.4 15.6 0 20.8 4.8 29.2 5 8.4 15.6 8.4 8.6 0 15.2-5.2t15.6-15.6q2.4-2.8 5.4-2.8zm-35-110.8q-3 0-6.8 7.6-3.6 7.4-7 20.8-3.2 13.2-5.4 29.4 11.8-10.2 17.6-22.8 6-12.8 6-23.2 0-11.8-4.4-11.8z" />
    <path d="M994.386 206.637q2.6 0 4 2.4 1.6 2.4 1.6 6.6 0 8-3.8 12.4-8.2 10-18 17.2-9.8 7-19.4 7-15.2 0-23.2-17.8-8.4 10.6-14.8 14.2-6.2 3.6-14.6 3.6-12.2 0-20.2-9-7.8-9.2-7.8-23.8 0-16 6.8-29.6 6.8-13.8 18.6-22.4 12-8.8 26.8-10.4 3.8-38.8 14.4-66.2 10.8-27.6 28.2-27.6 8.6 0 14.2 7.8 5.8 7.8 5.8 23.6 0 22.4-11 52.4t-29.4 61.6q.8 11.6 3.4 16.6 2.8 5 7 5 5.4 0 11-4.8t15-16q2.4-2.8 5.4-2.8zm-23.6-123.8q-3.8 0-7.6 13.6-3.8 13.4-6.6 35.2-2.6 21.8-3.8 45.6 22.4-48.8 22.4-78.4 0-7.6-1.4-11.8-1.2-4.2-3-4.2zm-57.6 149.2q3.8 0 7.6-3 3.8-3.2 9.6-11.6-2-10.8-2-24.2 0-4.8.4-15.6-11 3.4-18.4 14.8-7.2 11.2-7.2 25 0 14.6 10 14.6z" />
    <path d="M1073.301 206.637q2.6 0 4 2.4 1.6 2.4 1.6 6.6 0 8-3.8 12.4-7.4 9-21 16.6-13.4 7.6-28.8 7.6-21 0-32.6-11.4-11.6-11.4-11.6-31.2 0-13.8 5.8-25.6 5.8-12 16-19 10.4-7 23.4-7 11.6 0 18.6 7 7 6.8 7 18.6 0 13.8-10 23.8-9.8 9.8-33.4 15.6 5 9.2 19 9.2 9 0 20.4-6.2 11.6-6.4 20-16.6 2.4-2.8 5.4-2.8zm-50.4-29q-7.4 0-12.6 8.6-5 8.6-5 20.8v.4q11.8-2.8 18.6-8.4 6.8-5.6 6.8-13 0-3.8-2.2-6-2-2.4-5.6-2.4z" />
    <path d="M1147.807 230.437q8.2 1.6 8.2 9 0 5-4.6 9-4.4 3.8-12.8 3.8-14.4 0-23.6-8.8-9-9-9-23.4 0-7.8 8-11.2 8.8-3.8 12.6-8 3.8-4.4 3.8-10.6 0-3.6-1.6-5.4-1.4-1.8-3.6-1.8-5.4 0-12 7.8-6.4 7.8-12 20.2-5.6 12.2-8.8 25.2-2.2 9.4-5.2 12.8-2.8 3.2-9 3.2t-9.2-4.4q-2.8-4.6-3.8-14t-1-27.6q0-30.8 6.2-64.2 6.4-33.4 18.6-56 12.4-22.8 29.6-22.8 9.2 0 14.8 8 5.8 7.8 5.8 20.4 0 20.2-11.8 42-11.8 21.6-38.4 50.6-.6 10.4-.6 21.4 9.6-25 22-36.2 12.4-11.4 23.2-11.4 10 0 16 6.8 6.2 6.8 6.2 16.8 0 11-5.6 20.2t-19.2 16.4q1.2 6 4.8 8.4 3.8 2.2 12 3.8zm-33.4-147.4q-3.6 0-8 10.4-4.4 10.2-8.6 27.8-4 17.4-6.6 38 12.4-14.6 20.4-31.8 8.2-17.2 8.2-31.2 0-6.4-1.4-9.8-1.4-3.4-4-3.4z" />
  </g>
  <path d="M291.884 187.903c-4.495.049-8.991.015-13.487.024-1.333.648-2.942 1.172-3.59 2.616-.867 1.887-.916 3.997-1.465 5.975a109.491 109.491 0 01-4.09 14.006c-.204.542-.495 1.323-.74 1.956-6.4 16.483-16.898 31.491-30.638 42.91-11.088 9.249-24.271 16.133-38.402 19.627-11.815 2.954-24.23 3.553-36.29 1.808-11.669-1.69-23.1-5.654-33.315-11.525-15.153-8.637-27.779-21.32-36.679-36.097a107.394 107.394 0 01-5.407-10.132c-.346-.753-.79-1.709-1.148-2.55a109.297 109.297 0 01-3.711-9.782c-.177-.552-.398-1.232-.566-1.803-1.388-4.505-2.452-9.101-3.27-13.737-.893-1.168-1.703-2.636-3.272-2.998-2.125-.507-4.325-.178-6.486-.274H60.38l-3.296 1.47c-.517 1.708-1.355 3.51-.766 5.311 4.117 24.58 15.379 48.04 32.45 66.516 14.297 15.53 32.703 27.503 53.077 33.813 20.978 6.536 43.875 7.037 65.114 1.346 18.325-4.86 35.325-14.241 49.299-26.821 15.643-14.032 27.592-31.927 34.72-51.496 2.994-8.177 5.149-16.644 6.504-25.23-.458-1.29-.647-2.831-1.882-3.678-1.103-.708-2.37-1.286-3.716-1.255zM176.846 51.77c-20.864.194-41.605 5.748-59.365 15.76-19.677 11.017-35.736 27.212-46.314 45.945a117.532 117.532 0 00-13.68 38.623c.458 1.203.647 2.639 1.88 3.427 1.333.85 2.971 1.338 4.6 1.15h12.605c1.333-.605 2.942-1.094 3.59-2.442.868-1.761.914-3.731 1.465-5.577.202-.886.408-1.661.646-2.576 4.276-16.123 12.85-31.314 25.005-43.64 11.663-11.884 26.72-21.057 43.415-25.808a101.12 101.12 0 0111.336-2.537c.448-.066 1.261-.198 1.722-.265 17.135-2.502 35.029-.475 50.96 5.833 12.063 4.723 22.977 11.795 32.081 20.428.282.27.768.745 1.129 1.093a98.8 98.8 0 0117.233 22.57 99.257 99.257 0 014.15 8.372 97.989 97.989 0 015.776 17.584c.324 1.316.518 2.676.857 3.975.87 1.08 1.69 2.407 3.23 2.735 2.121.471 4.319.164 6.476.255h9.074c1.203-.603 2.706-.992 3.362-2.205.75-1.367.994-2.98.51-4.457-4.156-22.82-15.401-44.582-32.381-61.747-14.627-14.836-33.572-26.186-54.505-31.97-11.279-3.122-23.076-4.651-34.857-4.526z" fill="#0c90ef"/>
  <path stroke="#53bcfe" stroke-width="25" d="M56.261 172.434l83.05-1.073 16.78 18.577M300.271 172.762l-83.05-1.072-16.78 18.577" fill="none"/>
</svg>
